<svg width="138" height="37" viewBox="0 0 138 37" fill="none" xmlns="http://www.w3.org/2000/svg">
<g clip-path="url(#clip0_0_278)">
<g clip-path="url(#clip1_0_278)">
<path d="M4.43636 27.3716H7.34218C8.4217 27.3716 9.36812 27.2238 10.1815 26.928C11.0096 26.6175 11.6602 26.1738 12.1335 25.5971C12.6215 25.0204 12.8655 24.3253 12.8655 23.512C12.8655 22.6247 12.6215 21.8927 12.1335 21.316C11.6602 20.7245 11.0096 20.2882 10.1815 20.0073C9.36812 19.7115 8.4217 19.5636 7.34218 19.5636H1.64145V35.0909H7.71927C8.94667 35.0909 10.0114 34.943 10.9135 34.6473C11.8155 34.3367 12.5105 33.8635 12.9985 33.2276C13.5013 32.5918 13.7527 31.7562 13.7527 30.7211C13.7527 29.9373 13.5753 29.2719 13.2204 28.7247C12.8802 28.1628 12.4218 27.7044 11.8451 27.3495C11.2684 26.9798 10.6251 26.7136 9.91527 26.5509C9.20545 26.3882 8.47345 26.3069 7.71927 26.3069H4.43636V28.3476H7.29782C7.66752 28.3476 8.00024 28.3846 8.296 28.4585C8.60655 28.5177 8.88012 28.6212 9.11673 28.7691C9.35333 28.917 9.53818 29.1092 9.67127 29.3458C9.80436 29.5824 9.87091 29.8634 9.87091 30.1887C9.87091 30.6915 9.75261 31.0908 9.516 31.3865C9.29418 31.6675 8.99103 31.8745 8.60655 32.0076C8.22206 32.1259 7.78582 32.1851 7.29782 32.1851H5.39018V22.4695H6.94291C7.59358 22.4695 8.09636 22.6025 8.45127 22.8687C8.80618 23.1349 8.98364 23.5342 8.98364 24.0665C8.98364 24.4215 8.9023 24.7246 8.73964 24.976C8.57697 25.2126 8.34036 25.3975 8.02982 25.5305C7.73406 25.6636 7.37176 25.7302 6.94291 25.7302H4.43636V27.3716ZM18.8559 35.0909H26.6861V32.0076H18.8559V35.0909ZM18.8559 22.6469H26.6861V19.5636H18.8559V22.6469ZM18.8559 28.4364H26.2425V25.4196H18.8559V28.4364ZM16.3716 19.5636V35.0909H19.965V19.5636H16.3716ZM32.2213 35.0909H40.0515V32.0076H32.2213V35.0909ZM32.2213 22.6469H40.0515V19.5636H32.2213V22.6469ZM32.2213 28.4364H39.6079V25.4196H32.2213V28.4364ZM29.737 19.5636V35.0909H33.3304V19.5636H29.737ZM43.1024 19.5636V35.0909H46.9177V19.5636H43.1024ZM60.9213 19.5636V28.3033L50.2075 18.7873V35.0909H53.801V26.3513L64.537 35.8673V19.5636H60.9213ZM66.2659 22.9131H70.5248V35.0909H74.2736V22.9131H78.5547V19.5636H66.2659V22.9131ZM82.737 35.0909H90.5672V32.0076H82.737V35.0909ZM82.737 22.6469H90.5672V19.5636H82.737V22.6469ZM82.737 28.4364H90.1235V25.4196H82.737V28.4364ZM80.2526 19.5636V35.0909H83.8461V19.5636H80.2526ZM97.4998 28.0593L101.847 35.0909H106.239L101.382 28.0593H97.4998ZM93.618 19.5636V35.0909H97.3667V19.5636H93.618ZM95.9693 22.7356H99.0082C99.511 22.7356 99.9398 22.817 100.295 22.9796C100.664 23.1423 100.945 23.3789 101.138 23.6895C101.33 23.9852 101.426 24.3475 101.426 24.7764C101.426 25.2052 101.33 25.5749 101.138 25.8855C100.945 26.1812 100.664 26.4104 100.295 26.5731C99.9398 26.721 99.511 26.7949 99.0082 26.7949H95.9693V29.7007H99.2744C100.605 29.7007 101.714 29.4863 102.602 29.0575C103.489 28.6286 104.162 28.0371 104.62 27.2829C105.079 26.5139 105.308 25.6341 105.308 24.6433C105.308 23.6377 105.079 22.7578 104.62 22.0036C104.162 21.2347 103.489 20.6358 102.602 20.2069C101.714 19.7781 100.605 19.5636 99.2744 19.5636H95.9693V22.7356ZM118.694 19.5636V28.3033L107.98 18.7873V35.0909H111.573V26.3513L122.309 35.8673V19.5636H118.694ZM127.299 29.6342L124.682 31.5196C125.036 32.259 125.532 32.9393 126.168 33.5604C126.804 34.1815 127.55 34.6768 128.408 35.0465C129.281 35.4015 130.22 35.5789 131.225 35.5789C131.95 35.5789 132.652 35.468 133.332 35.2462C134.028 35.0392 134.641 34.7286 135.174 34.3145C135.721 33.9005 136.15 33.3903 136.46 32.784C136.785 32.1629 136.948 31.4605 136.948 30.6767C136.948 30.0261 136.845 29.4493 136.638 28.9465C136.431 28.4438 136.142 28.0001 135.772 27.6156C135.418 27.2312 135.004 26.9058 134.53 26.6396C134.057 26.3587 133.547 26.1147 133 25.9076C132.275 25.6562 131.654 25.4196 131.136 25.1978C130.634 24.976 130.242 24.732 129.961 24.4658C129.695 24.1996 129.562 23.8891 129.562 23.5342C129.562 23.1941 129.702 22.9131 129.983 22.6913C130.264 22.4547 130.671 22.3364 131.203 22.3364C131.602 22.3364 131.972 22.4177 132.312 22.5804C132.667 22.7282 132.985 22.9427 133.266 23.2236C133.562 23.4898 133.82 23.8078 134.042 24.1775L136.904 22.5804C136.638 22.048 136.253 21.523 135.75 21.0055C135.248 20.4879 134.612 20.059 133.843 19.7189C133.088 19.3788 132.194 19.2087 131.159 19.2087C130.153 19.2087 129.236 19.3862 128.408 19.7411C127.595 20.0812 126.944 20.584 126.456 21.2495C125.983 21.9149 125.746 22.7061 125.746 23.6229C125.746 24.3919 125.887 25.0499 126.168 25.5971C126.449 26.1295 126.804 26.5879 127.232 26.9724C127.661 27.3421 128.112 27.6452 128.586 27.8818C129.074 28.1184 129.502 28.3033 129.872 28.4364C130.626 28.7173 131.233 28.9687 131.691 29.1905C132.149 29.4124 132.482 29.649 132.689 29.9004C132.896 30.137 133 30.4549 133 30.8542C133 31.3274 132.822 31.7045 132.467 31.9855C132.112 32.2516 131.661 32.3847 131.114 32.3847C130.597 32.3847 130.101 32.2738 129.628 32.052C129.17 31.8302 128.741 31.5122 128.342 31.0982C127.957 30.6841 127.61 30.1961 127.299 29.6342Z" fill="white"/>
</g>
<path d="M110.696 14H116.427V12.8194H113.164L115.3 10.7264C115.608 10.4402 115.855 10.1146 116.041 9.74968C116.234 9.38475 116.331 9.00551 116.331 8.61196C116.331 8.36152 116.277 8.10393 116.17 7.83918C116.069 7.57443 115.912 7.33114 115.697 7.10933C115.49 6.88751 115.225 6.70862 114.903 6.57267C114.581 6.42956 114.202 6.35801 113.765 6.35801C113.193 6.35801 112.706 6.47965 112.306 6.72293C111.912 6.95906 111.612 7.28821 111.404 7.71038C111.204 8.1254 111.103 8.60123 111.103 9.13789H112.359C112.359 8.80874 112.413 8.51894 112.52 8.2685C112.635 8.01806 112.796 7.82845 113.003 7.69965C113.211 7.56369 113.458 7.49572 113.744 7.49572C113.951 7.49572 114.134 7.5315 114.291 7.60305C114.449 7.66745 114.581 7.75689 114.688 7.87138C114.803 7.98586 114.885 8.11466 114.935 8.25777C114.992 8.39372 115.021 8.53325 115.021 8.67636C115.021 8.87672 114.989 9.06633 114.924 9.24522C114.86 9.42411 114.763 9.60299 114.635 9.78188C114.506 9.96076 114.352 10.1468 114.173 10.34L110.696 14ZM118.633 10.2434C118.633 9.8427 118.672 9.47419 118.751 9.13789C118.83 8.80158 118.941 8.51179 119.084 8.2685C119.234 8.02522 119.413 7.83918 119.62 7.71038C119.828 7.57443 120.057 7.50645 120.307 7.50645C120.572 7.50645 120.805 7.57443 121.005 7.71038C121.212 7.83918 121.388 8.02522 121.531 8.2685C121.681 8.51179 121.796 8.80158 121.874 9.13789C121.953 9.47419 121.992 9.8427 121.992 10.2434C121.992 10.6441 121.953 11.0126 121.874 11.3489C121.796 11.6852 121.681 11.975 121.531 12.2183C121.388 12.4616 121.212 12.6512 121.005 12.7872C120.805 12.916 120.572 12.9804 120.307 12.9804C120.057 12.9804 119.828 12.916 119.62 12.7872C119.413 12.6512 119.234 12.4616 119.084 12.2183C118.941 11.975 118.83 11.6852 118.751 11.3489C118.672 11.0126 118.633 10.6441 118.633 10.2434ZM117.388 10.2434C117.388 11.0233 117.51 11.7031 117.753 12.2827C118.003 12.8623 118.347 13.3131 118.783 13.6351C119.227 13.9571 119.735 14.1181 120.307 14.1181C120.894 14.1181 121.406 13.9571 121.842 13.6351C122.286 13.3131 122.629 12.8623 122.873 12.2827C123.116 11.7031 123.237 11.0233 123.237 10.2434C123.237 9.46346 123.116 8.78369 122.873 8.20411C122.629 7.62452 122.286 7.17372 121.842 6.85173C121.406 6.52974 120.894 6.36874 120.307 6.36874C119.735 6.36874 119.227 6.52974 118.783 6.85173C118.347 7.17372 118.003 7.62452 117.753 8.20411C117.51 8.78369 117.388 9.46346 117.388 10.2434ZM123.881 14H129.613V12.8194H126.35L128.486 10.7264C128.794 10.4402 129.041 10.1146 129.227 9.74968C129.42 9.38475 129.516 9.00551 129.516 8.61196C129.516 8.36152 129.463 8.10393 129.355 7.83918C129.255 7.57443 129.098 7.33114 128.883 7.10933C128.676 6.88751 128.411 6.70862 128.089 6.57267C127.767 6.42956 127.388 6.35801 126.951 6.35801C126.379 6.35801 125.892 6.47965 125.491 6.72293C125.098 6.95906 124.797 7.28821 124.59 7.71038C124.389 8.1254 124.289 8.60123 124.289 9.13789H125.545C125.545 8.80874 125.599 8.51894 125.706 8.2685C125.821 8.01806 125.982 7.82845 126.189 7.69965C126.397 7.56369 126.643 7.49572 126.93 7.49572C127.137 7.49572 127.32 7.5315 127.477 7.60305C127.634 7.66745 127.767 7.75689 127.874 7.87138C127.989 7.98586 128.071 8.11466 128.121 8.25777C128.178 8.39372 128.207 8.53325 128.207 8.67636C128.207 8.87672 128.175 9.06633 128.11 9.24522C128.046 9.42411 127.949 9.60299 127.821 9.78188C127.692 9.96076 127.538 10.1468 127.359 10.34L123.881 14ZM130.359 14H136.091V12.8194H132.828L134.964 10.7264C135.271 10.4402 135.518 10.1146 135.704 9.74968C135.897 9.38475 135.994 9.00551 135.994 8.61196C135.994 8.36152 135.94 8.10393 135.833 7.83918C135.733 7.57443 135.575 7.33114 135.361 7.10933C135.153 6.88751 134.888 6.70862 134.566 6.57267C134.244 6.42956 133.865 6.35801 133.429 6.35801C132.856 6.35801 132.37 6.47965 131.969 6.72293C131.575 6.95906 131.275 7.28821 131.067 7.71038C130.867 8.1254 130.767 8.60123 130.767 9.13789H132.023C132.023 8.80874 132.076 8.51894 132.184 8.2685C132.298 8.01806 132.459 7.82845 132.667 7.69965C132.874 7.56369 133.121 7.49572 133.407 7.49572C133.615 7.49572 133.797 7.5315 133.955 7.60305C134.112 7.66745 134.244 7.75689 134.352 7.87138C134.466 7.98586 134.549 8.11466 134.599 8.25777C134.656 8.39372 134.685 8.53325 134.685 8.67636C134.685 8.87672 134.652 9.06633 134.588 9.24522C134.524 9.42411 134.427 9.60299 134.298 9.78188C134.169 9.96076 134.015 10.1468 133.837 10.34L130.359 14Z" fill="white"/>
<path d="M34.4306 8.59464C35.1826 8.65996 35.8493 8.11051 35.9152 7.3651C35.9191 7.34205 35.9191 7.31899 35.9191 7.2921H35.1283C35.0469 7.60716 34.8531 7.7647 34.4306 7.7647C34.008 7.7647 33.7871 7.60716 33.7212 7.2921H32.9304C32.9614 8.04519 33.6088 8.63306 34.3685 8.59848C34.3879 8.59848 34.4073 8.59464 34.4306 8.59464Z" fill="white"/>
<path d="M18.1692 12.2333V9.00192H17.173V13.7126H18.2118L20.2198 10.4274V13.7126H21.216V9.00192H20.1772L18.1692 12.2333Z" fill="white"/>
<path fill-rule="evenodd" clip-rule="evenodd" d="M12.223 10.0509C12.5796 9.40152 13.2851 9.00577 14.0332 9.04035C14.0875 9.04035 14.1379 9.04035 14.1844 9.04419C15.3589 9.12103 16.2505 10.1239 16.173 11.2881C16.173 12.6444 15.3279 13.801 13.7696 13.801C12.1726 13.801 11.312 12.6291 11.312 10.8001C11.312 8.70991 11.8159 7.38047 13.6068 7.14224L15.6845 6.8656L15.7659 7.91839L13.7735 8.18351C12.4943 8.34873 12.2733 8.98271 12.223 10.0509ZM12.3392 11.1844C12.3392 12.1334 12.8703 12.7635 13.7735 12.7635C14.6767 12.7635 15.1535 12.1834 15.1535 11.2881C15.1535 10.3928 14.5526 10.0393 13.7735 10.0393C13.037 10.0393 12.5292 10.3275 12.3392 10.6964V11.1844Z" fill="white"/>
<path d="M40.6561 9.00192V10.7655H38.714V9.00192H37.7178V13.7126H38.714V11.7376H40.6561V13.7126H41.6523V9.00192H40.6561Z" fill="white"/>
<path d="M33.4188 12.2333V9.00192H32.4226V13.7126H33.4615L35.4694 10.4274V13.7126H36.4656V9.00192H35.4268L33.4188 12.2333Z" fill="white"/>
<path d="M23.0108 11.8837C22.9022 12.4101 22.7511 12.6329 22.4487 12.6329C22.3247 12.6368 22.2006 12.6252 22.0804 12.5945V13.6857C22.2355 13.7549 22.4022 13.7856 22.5727 13.7779C23.0534 13.7894 23.4837 13.4897 23.6387 13.0402C23.7628 12.6713 23.8403 12.2833 23.8713 11.8952C23.9372 11.265 23.9682 10.6349 23.9682 10.0009H25.2939V13.7126H26.2902V9.00192H23.1348C23.1542 9.96634 23.1116 10.9269 23.0108 11.8837Z" fill="white"/>
<path fill-rule="evenodd" clip-rule="evenodd" d="M31.0078 10.5696L30.9923 12.437C30.9923 12.7251 31.1163 12.8442 31.4342 12.8481H31.5156V13.7549H31.2404C30.5659 13.7549 30.1783 13.5051 30.1279 12.9365C29.8875 13.4705 29.3448 13.8087 28.7556 13.7933C27.8292 13.7933 27.364 13.2784 27.364 12.4754C27.364 11.6992 27.992 11.3304 28.8254 10.9999L30.0465 10.5235C29.9961 10.0393 29.6666 9.89334 29.1782 9.89334C28.7014 9.89334 28.3447 10.0393 28.2905 10.4735H27.333V10.4582C27.4067 9.52064 28.2323 8.82518 29.1782 8.89818C30.2713 8.89818 31.0233 9.38615 31.0078 10.5696ZM28.3137 12.2794C28.3137 12.6867 28.6548 12.8058 29.12 12.8058C29.4611 12.825 29.7945 12.7021 30.0348 12.4638L30.0465 11.1882L29.0929 11.5686C28.6006 11.7684 28.3137 11.9259 28.3137 12.2794Z" fill="white"/>
<path d="M5.09429 14.5195C7.20303 14.5502 8.93576 12.8327 8.96677 10.6849C8.93188 8.53316 7.19915 6.81565 5.09429 6.84639C2.98555 6.81565 1.25281 8.53316 1.2218 10.6849C1.25281 12.8327 2.98555 14.5502 5.09429 14.5195Z" fill="#FFC800"/>
<path d="M6.75725 13.5435C5.44316 14.2966 4.01666 14.4311 3.10571 13.9816C4.31514 14.6962 5.80754 14.7039 7.02471 14.0085C8.23026 13.3322 8.97452 12.0335 8.95902 10.6272C8.90475 11.6339 8.07133 12.7904 6.75725 13.5435Z" fill="black"/>
<path d="M5.58271 7.13072C5.85018 7.58795 5.20671 8.45247 4.14458 9.05956C3.08246 9.66664 2.00871 9.7896 1.74124 9.33236C1.72961 9.30931 1.71798 9.28625 1.71023 9.2632C1.65984 8.98271 1.73737 8.69838 1.92343 8.48321C1.95444 8.4371 1.98933 8.39484 2.02422 8.34873C2.33432 7.94913 2.72196 7.61485 3.15999 7.3651C3.59802 7.10766 4.08256 6.94629 4.58261 6.88097C4.64076 6.87328 4.69503 6.8656 4.7493 6.86175C5.02839 6.8118 5.31525 6.88481 5.5362 7.06924C5.5517 7.08845 5.57109 7.10766 5.58271 7.13072Z" fill="black"/>
<path d="M7.23017 7.62253C7.69534 8.42173 6.75726 9.82034 5.13306 10.7502C3.50887 11.68 1.8149 11.7838 1.35361 10.9846C1.27608 10.8501 1.23344 10.7002 1.22569 10.5427C1.20631 11.0921 1.30322 11.6377 1.51642 12.1449C1.54743 12.2218 1.58231 12.2986 1.62108 12.3755L1.62495 12.387C1.77226 12.6291 1.98158 12.825 2.22967 12.9518C3.14061 13.436 4.67953 13.2707 6.12153 12.4446C7.55966 11.6224 8.47448 10.3813 8.50937 9.35926C8.52488 9.07877 8.45898 8.80212 8.31943 8.56006C8.26516 8.48321 8.21089 8.40636 8.15275 8.33336C7.8155 7.90302 7.39298 7.54953 6.91231 7.29978C7.04411 7.38047 7.15265 7.49189 7.23017 7.62253Z" fill="black"/>
<path d="M5.09429 14.5195C7.20303 14.5502 8.93576 12.8327 8.96677 10.6849C8.93188 8.53316 7.19915 6.81565 5.09429 6.84639C2.98555 6.81565 1.25281 8.53316 1.2218 10.6849C1.25281 12.8327 2.98555 14.5502 5.09429 14.5195Z" fill="url(#paint0_radial_0_278)"/>
</g>
<defs>
<radialGradient id="paint0_radial_0_278" cx="0" cy="0" r="1" gradientUnits="userSpaceOnUse" gradientTransform="translate(5.09349 10.6843) scale(3.87006 3.83456)">
<stop offset="0.5" stop-color="white" stop-opacity="0.01"/>
<stop offset="1" stop-color="white" stop-opacity="0.35"/>
</radialGradient>
<clipPath id="clip0_0_278">
<rect width="138" height="37" fill="white"/>
</clipPath>
<clipPath id="clip1_0_278">
<rect width="139.131" height="26.9091" fill="white" transform="translate(0 10.0909)"/>
</clipPath>
</defs>
</svg>
